<?xml version="1.0" standalone="no"?>
<!DOCTYPE svg PUBLIC "-//W3C//DTD SVG 20010904//EN"
 "http://www.w3.org/TR/2001/REC-SVG-20010904/DTD/svg10.dtd">
<svg version="1.0" xmlns="http://www.w3.org/2000/svg"
 width="400.000000pt" height="400.000000pt" viewBox="0 0 400.000000 400.000000"
 preserveAspectRatio="xMidYMid meet">
<metadata>
Created by potrace 1.14, written by Peter Selinger 2001-2017
</metadata>
<g transform="translate(0.000000,400.000000) scale(0.100000,-0.100000)"
fill="#000000" stroke="none">
<path d="M1978 3460 c-58 -10 -138 -72 -138 -106 0 -7 -4 -14 -10 -14 -5 0 -9
-3 -9 -7 1 -5 0 -10 -1 -13 -7 -19 -5 -72 6 -107 13 -45 47 -96 58 -86 3 3 6
1 6 -5 0 -6 12 -18 27 -25 26 -14 26 -16 25 -113 0 -55 -1 -102 -1 -106 -1 -5
-26 -8 -56 -8 -55 0 -185 -44 -185 -62 0 -5 -4 -7 -9 -4 -5 3 -20 -5 -35 -19
-14 -13 -26 -22 -26 -19 0 7 -43 -27 -90 -70 -29 -26 -174 -107 -202 -112 -5
-1 -10 -3 -13 -4 -3 -1 -8 -3 -12 -4 -5 -1 -13 -4 -19 -8 -25 -16 -208 -44
-269 -42 -127 7 -236 41 -333 105 -24 16 -45 29 -48 29 -3 0 -15 10 -28 23
-13 12 -39 37 -59 55 l-37 32 -25 -40 c-14 -22 -25 -44 -25 -48 0 -14 188
-189 236 -220 50 -31 54 -49 19 -82 -14 -13 -25 -29 -25 -36 0 -7 -4 -14 -8
-16 -4 -1 -37 -41 -72 -88 -36 -47 -68 -86 -72 -88 -5 -2 -8 -8 -8 -14 0 -5
-6 -15 -13 -23 -6 -7 -21 -25 -32 -41 -11 -15 -28 -36 -38 -46 -9 -10 -14 -18
-10 -18 5 0 3 -4 -2 -8 -17 -11 -116 -142 -109 -142 4 0 -2 -8 -12 -17 -11
-10 -52 -62 -91 -115 l-72 -97 -51 3 c-28 1 -55 -1 -60 -4 -12 -7 50 -150 78
-181 12 -12 22 -27 22 -32 0 -5 18 -27 40 -49 22 -22 40 -45 40 -50 0 -5 4 -7
8 -4 5 3 16 -6 26 -20 11 -13 25 -24 32 -24 8 0 14 -4 14 -8 0 -5 12 -15 28
-23 15 -8 29 -16 32 -19 22 -25 222 -93 310 -106 39 -6 212 -5 240 1 14 3 39
8 55 11 17 2 48 10 70 16 22 6 42 12 45 13 17 3 146 70 151 77 3 6 9 9 13 8
11 -3 126 90 126 101 0 6 4 8 9 4 5 -3 12 3 16 14 3 11 12 22 20 25 8 3 15 12
15 20 0 7 7 16 15 20 8 3 15 12 15 20 0 8 4 16 8 18 12 4 72 135 72 156 0 14
-9 17 -50 16 -44 -1 -54 3 -70 25 -11 14 -24 31 -28 37 -5 5 -22 29 -37 52
-15 23 -32 42 -38 42 -6 0 -8 3 -4 6 3 3 -8 20 -24 36 -16 17 -29 37 -29 45 0
8 -4 11 -10 8 -5 -3 -10 0 -10 7 0 7 -10 25 -23 39 -24 29 -41 51 -113 149
-27 36 -51 67 -54 70 -3 3 -30 39 -60 80 -30 41 -60 81 -67 88 -22 23 -14 33
20 26 17 -3 43 -7 57 -10 37 -5 190 -5 230 1 19 3 46 7 60 9 14 2 25 5 25 6 0
1 6 3 50 14 11 2 36 11 55 19 70 28 75 30 83 29 4 -1 7 3 7 10 0 6 3 9 6 5 3
-3 28 8 55 24 28 16 54 29 59 29 4 0 10 4 12 9 4 10 190 101 208 101 9 0 10
-23 4 -92 -3 -51 -8 -109 -9 -128 -3 -47 -15 -193 -21 -255 -2 -27 -6 -77 -9
-110 -2 -33 -7 -89 -10 -125 -3 -36 -8 -87 -10 -115 -2 -27 -6 -72 -9 -100 -8
-65 -14 -116 -22 -190 -3 -33 -8 -69 -10 -80 -2 -11 -7 -40 -10 -65 -3 -25 -7
-53 -10 -62 -3 -9 -7 -26 -9 -37 -11 -49 -19 -79 -28 -101 -3 -8 -15 -42 -27
-75 -12 -33 -25 -62 -28 -65 -4 -3 -13 -16 -20 -30 -18 -38 -35 -63 -54 -81
-10 -9 -18 -22 -18 -28 0 -7 -5 -9 -10 -6 -6 3 -13 0 -16 -8 -14 -38 -157
-114 -234 -124 -19 -3 -39 -9 -44 -14 -14 -12 -14 -180 -1 -175 5 2 20 -1 32
-5 12 -5 24 -5 27 -1 5 9 769 8 783 -1 7 -4 14 -4 17 1 5 9 288 8 304 -2 6 -3
13 -3 16 2 2 4 79 7 170 6 l166 -1 1 46 c0 25 2 65 2 89 2 38 -1 43 -23 48
-57 11 -161 46 -173 59 -8 7 -31 23 -53 34 -21 12 -35 21 -31 21 4 0 -10 17
-30 38 -40 39 -48 51 -85 117 -24 42 -66 146 -73 180 -3 11 -11 41 -18 66 -8
24 -13 53 -11 62 1 9 -1 17 -4 17 -4 0 -7 10 -8 23 0 12 -4 47 -8 77 -11 79
-15 108 -22 170 -3 30 -7 69 -9 85 -2 17 -6 66 -10 110 -11 131 -14 155 -20
165 -3 5 -1 11 5 15 6 4 7 11 4 17 -7 11 -11 45 -19 153 -4 68 -11 149 -20
250 -3 28 -7 86 -11 130 -3 44 -8 83 -11 88 -6 9 39 6 47 -4 3 -3 31 -16 63
-28 31 -13 57 -27 57 -32 0 -5 8 -9 18 -9 9 0 28 -9 42 -20 14 -11 28 -20 31
-20 4 0 28 -12 55 -27 27 -15 54 -28 59 -30 6 -1 33 -11 60 -22 28 -11 57 -22
65 -24 8 -3 17 -5 20 -6 21 -8 91 -23 120 -26 54 -7 192 -7 220 -1 14 3 45 9
70 12 l45 6 -20 -23 c-11 -13 -23 -28 -28 -34 -11 -15 -66 -88 -74 -100 -5 -6
-21 -28 -38 -50 -16 -22 -35 -46 -42 -53 -7 -7 -20 -26 -30 -42 -9 -17 -21
-30 -25 -30 -4 0 -8 -6 -8 -14 0 -8 -4 -16 -8 -18 -4 -1 -21 -21 -37 -43 -17
-22 -33 -44 -38 -50 -4 -5 -21 -28 -38 -50 -16 -22 -35 -47 -42 -55 -7 -8 -23
-31 -37 -50 -13 -19 -27 -37 -30 -40 -3 -3 -16 -19 -28 -37 -21 -30 -26 -32
-77 -29 -30 2 -57 1 -59 -1 -8 -8 37 -122 46 -117 4 3 5 -1 3 -9 -7 -16 84
-138 141 -190 51 -45 124 -100 124 -91 0 3 12 -3 28 -14 31 -21 142 -66 187
-76 17 -3 41 -9 55 -12 96 -20 246 -20 335 0 6 2 28 6 50 11 22 4 45 10 50 14
6 3 16 6 22 7 21 3 148 67 151 76 2 4 8 8 14 8 26 0 153 116 198 180 13 19 28
38 33 41 5 3 9 9 8 12 0 4 14 36 30 73 17 36 28 71 26 78 -3 6 -25 11 -53 11
-45 -1 -51 2 -73 34 -14 20 -27 38 -31 41 -3 3 -22 27 -41 54 -18 27 -46 63
-61 80 -16 17 -28 35 -28 40 0 5 -6 14 -14 20 -17 14 -256 334 -263 353 -3 7
-12 13 -21 13 -8 0 -13 3 -9 6 3 4 -18 38 -48 77 -53 71 -53 71 -32 86 95 66
267 225 267 248 0 7 -4 13 -10 13 -5 0 -10 5 -10 10 0 6 -7 22 -16 35 l-16 25
-35 -33 c-20 -17 -46 -42 -59 -54 -13 -13 -25 -23 -28 -23 -3 0 -24 -13 -48
-29 -93 -62 -208 -99 -323 -103 -76 -2 -173 8 -211 22 -13 5 -24 7 -24 4 0 -4
-7 -1 -15 6 -8 7 -15 10 -15 7 0 -6 -133 49 -180 74 -24 13 -99 67 -110 79 -3
3 -21 17 -40 30 -19 13 -41 30 -48 37 -21 20 -133 72 -169 78 -18 3 -50 6 -71
7 l-40 1 -1 109 c-1 64 2 107 7 104 15 -9 91 63 107 101 19 45 19 114 1 156
-12 28 -93 117 -99 109 -1 -2 -10 0 -20 4 -10 3 -21 4 -24 1 -3 -4 -13 -3 -22
2 -9 4 -32 5 -53 1z m-1136 -1135 c4 -5 20 -26 36 -45 16 -19 48 -62 73 -95
24 -33 47 -61 52 -63 4 -2 7 -10 7 -17 0 -7 3 -15 8 -17 4 -1 23 -23 42 -48
19 -25 40 -51 47 -58 7 -7 13 -16 13 -20 0 -4 14 -23 30 -42 16 -19 33 -40 37
-45 5 -6 35 -46 68 -90 33 -44 62 -82 65 -85 9 -8 41 -60 38 -61 -15 -5 -1108
-3 -1108 3 0 3 6 13 12 20 7 7 26 31 43 53 16 22 34 46 40 52 5 7 23 29 38 50
16 21 48 64 73 97 24 32 44 63 44 68 0 5 5 6 10 3 6 -3 10 -1 10 5 0 9 34 58
75 106 6 7 20 25 31 41 106 142 159 209 166 211 4 2 8 11 8 20 0 12 5 10 17
-8 10 -14 21 -29 25 -35z m2465 -75 c32 -41 62 -80 68 -86 5 -6 17 -22 25 -35
8 -12 25 -33 37 -46 12 -13 20 -23 17 -23 -6 0 99 -134 108 -138 5 -2 8 -8 8
-13 0 -8 26 -42 58 -75 7 -8 11 -14 8 -14 -5 0 23 -36 52 -66 6 -7 12 -17 12
-23 0 -5 6 -14 13 -18 17 -11 59 -73 50 -74 -29 -4 -1103 -4 -1103 0 0 4 89
129 111 155 14 17 61 79 84 110 11 16 25 33 31 40 5 6 26 32 45 57 19 25 57
76 84 113 48 65 108 142 169 221 l30 37 18 -24 c10 -12 44 -57 75 -98z"/>
</g>
</svg>
